<?xml version="1.0" encoding="UTF-8"?>
<svg width="92.0246672px" height="90.0938508px" viewBox="0 0 92.0246672 90.0938508" version="1.1" xmlns="http://www.w3.org/2000/svg" xmlns:xlink="http://www.w3.org/1999/xlink">
    <title>noun-moon-6047270</title>
    <g id="Page-1" stroke="none" stroke-width="1" fill="none" fill-rule="evenodd">
        <g id="noun-moon-6047270" transform="translate(-0.000000, 0.000000)" fill="#000000" fill-rule="nonzero">
            <path d="M91.5573578,46.3420223 L91.5573578,46.2220223 L91.5573578,46.2220223 C91.5308359,46.1763815 91.5007419,46.1329123 91.4673578,46.0920223 C90.8142247,45.0328293 89.7053477,44.337933 88.4673578,44.2120223 C87.3714486,44.1105762 86.2832174,44.4733199 85.4673578,45.2120223 C73.3621224,52.1934377 58.1949058,50.9273266 47.4147177,42.0355085 C36.6345296,33.1436905 32.5062399,18.4942973 37.0573578,5.28202231 C37.3969215,4.27685426 37.3232327,3.17795906 36.8525051,2.22712685 C36.3817776,1.27629464 35.5525788,0.551429014 34.5473578,0.212022307 L34.3973578,0.212022307 C33.5640132,-0.0706741025 32.6607023,-0.0706741025 31.8273578,0.212022307 C10.0586861,7.29111701 -3.21061654,29.2795667 0.672414623,51.8386162 C4.55544579,74.3976658 24.4129042,90.6840913 47.2956627,90.0774502 C70.1784211,89.4708091 89.1450595,72.1551242 91.8273578,49.4220223 C92.1643348,48.4018632 92.0666902,47.287992 91.5573578,46.3420223 L91.5573578,46.3420223 Z M46.1373578,81.9722807 C28.8114463,81.9341369 13.6951679,70.2050325 9.35484316,53.4315348 C5.01451841,36.6580371 12.5444068,19.068991 27.6773578,10.6320223 C27.4370324,12.4253283 27.3167647,14.2326848 27.3173578,16.0420223 C27.3275984,29.4853391 33.8459636,42.0917369 44.8094808,49.8714646 C55.7729981,57.6511923 69.824678,59.6413284 82.5173578,55.2120223 C77.6039336,71.1681056 62.8327035,82.0333645 46.1373578,81.9722807 Z" id="Shape"></path>
        </g>
    </g>
</svg>