<?xml version="1.0" encoding="UTF-8"?>
<svg width="90px" height="90px" viewBox="0 0 90 90" version="1.1" xmlns="http://www.w3.org/2000/svg" xmlns:xlink="http://www.w3.org/1999/xlink">
    <title>noun-moon-6047270</title>
    <g id="Page-1" stroke="none" stroke-width="1" fill="none" fill-rule="evenodd">
        <g id="noun-moon-6047270" fill="#000000" fill-rule="nonzero">
            <path d="M89.542972,46.2937478 L89.542972,46.1738728 L89.542972,46.1738728 C89.5170337,46.1282795 89.4876018,46.0848556 89.4549521,46.0440082 C88.8161889,44.9859185 87.7317087,44.2917462 86.5209562,44.1659666 C85.4491585,44.0646262 84.3848699,44.4269921 83.5869602,45.1649249 C71.7480564,52.1390678 56.9145392,50.8742755 46.3715298,41.9917201 C35.8285204,33.1091647 31.7910586,18.4750318 36.2420457,5.27652002 C36.5741386,4.27239906 36.5020711,3.17464858 36.0417002,2.22480685 C35.5813292,1.27496512 34.770374,0.55085459 33.7872691,0.211801444 L33.6405693,0.211801444 C32.8255595,-0.0706004812 31.9421226,-0.0706004812 31.1271128,0.211801444 C9.8373814,7.28352184 -3.13997863,29.2490661 0.657620591,51.7846159 C4.45521982,74.3201656 23.8757873,90.5896256 46.2550941,89.9836164 C68.6344009,89.3776073 87.1837475,72.0799602 89.8070316,49.3705393 C90.1365947,48.3514429 90.0410985,47.238732 89.542972,46.2937478 L89.542972,46.2937478 Z M45.1222735,81.8868901 C28.1775555,81.848786 13.3938557,70.1318998 9.14902395,53.3758751 C4.90419222,36.6198504 12.2684129,19.0491268 27.0684184,10.6209469 C26.8333806,12.4123848 26.7157589,14.2178586 26.7163389,16.0253113 C26.7263542,29.4546242 33.1013066,42.0478899 43.8236116,49.8195135 C54.5459166,57.591137 68.2884406,59.5792 80.7018642,55.1545079 C75.8965421,71.0939697 61.450299,81.9479103 45.1222735,81.8868901 Z" id="Shape"></path>
        </g>
    </g>
</svg>