<?xml version="1.0" encoding="UTF-8"?>
<svg width="109px" height="109px" viewBox="0 0 109 109" version="1.1" xmlns="http://www.w3.org/2000/svg" xmlns:xlink="http://www.w3.org/1999/xlink">
    <title>Shape</title>
    <g id="Page-1" stroke="none" stroke-width="1" fill="none" fill-rule="evenodd">
        <g id="noun-sun-4890484" fill="#000000">
            <path d="M54.5,0 C56.2702882,0 57.7058824,1.43533765 57.7058824,3.20588235 L57.7058824,16.0294118 C57.7058824,17.7999565 56.2702882,19.2352941 54.5,19.2352941 C52.7297118,19.2352941 51.2941176,17.7999565 51.2941176,16.0294118 L51.2941176,3.20588235 C51.2941176,1.43533765 52.7297118,0 54.5,0 Z M54.5000002,79.1470592 C68.1119547,79.1470592 79.1470592,68.1119547 79.1470592,54.5000002 C79.1470592,40.8877992 68.1119547,29.8529412 54.5000002,29.8529412 C40.8877992,29.8529412 29.8529412,40.8877992 29.8529412,54.5000002 C29.8529412,68.1119547 40.8877992,79.1470592 54.5000002,79.1470592 Z M54.5,86.5588235 C72.2054471,86.5588235 86.5588235,72.2054471 86.5588235,54.5 C86.5588235,36.7944247 72.2054471,22.4411765 54.5,22.4411765 C36.7944247,22.4411765 22.4411765,36.7944247 22.4411765,54.5 C22.4411765,72.2054471 36.7944247,86.5588235 54.5,86.5588235 Z M57.7058824,92.9705882 C57.7058824,91.2003 56.2702882,89.7647059 54.5,89.7647059 C52.7297118,89.7647059 51.2941176,91.2003 51.2941176,92.9705882 L51.2941176,105.794118 C51.2941176,107.564406 52.7297118,109 54.5,109 C56.2702882,109 57.7058824,107.564406 57.7058824,105.794118 L57.7058824,92.9705882 Z M89.7647059,54.5 C89.7647059,52.7297118 91.2003,51.2941176 92.9705882,51.2941176 L105.794118,51.2941176 C107.564406,51.2941176 109,52.7297118 109,54.5 C109,56.2702882 107.564406,57.7058824 105.794118,57.7058824 L92.9705882,57.7058824 C91.2003,57.7058824 89.7647059,56.2702882 89.7647059,54.5 Z M84.2922647,79.7572235 C83.0406882,78.5050059 81.0107235,78.5050059 79.7585059,79.7572235 C78.5069294,81.0088 78.5069294,83.0387647 79.7585059,84.2909824 L88.8260235,93.3585 C90.0782412,94.6107176 92.1082059,94.6107176 93.3597824,93.3585 C94.612,92.1062824 94.612,90.0763176 93.3597824,88.8247412 L84.2922647,79.7572235 Z M79.7585059,29.2413659 C78.5062882,27.9894047 78.5062882,25.9595682 79.7585059,24.7076071 L88.8260235,15.6399612 C90.0776,14.388 92.1075647,14.388 93.3597824,15.6399612 C94.612,16.8919865 94.612,18.9218229 93.3597824,20.1737841 L84.2922647,29.2413659 C83.0400471,30.4933912 81.0100824,30.4933912 79.7585059,29.2413659 Z M3.20588235,51.2941176 C1.43533765,51.2941176 0,52.7297118 0,54.5 C0,56.2702882 1.43533765,57.7058824 3.20588235,57.7058824 L16.0294118,57.7058824 C17.7999565,57.7058824 19.2352941,56.2702882 19.2352941,54.5 C19.2352941,52.7297118 17.7999565,51.2941176 16.0294118,51.2941176 L3.20588235,51.2941176 Z M15.6406665,93.3591412 C14.3887053,92.1069235 14.3887053,90.0769588 15.6406665,88.8253824 L24.7082482,79.7578647 C25.9602094,78.5056471 27.99011,78.5056471 29.2420712,79.7578647 C30.4940324,81.0094412 30.4940324,83.0394059 29.2420712,84.2916235 L20.1744894,93.3591412 C18.9224641,94.6107176 16.8926276,94.6107176 15.6406665,93.3591412 Z M20.1747459,15.6409229 C18.9227847,14.3889618 16.8929482,14.3889618 15.6409871,15.6409229 C14.3889618,16.8929482 14.3889618,18.9227847 15.6409871,20.1747459 L24.7085688,29.2423276 C25.96053,30.4943529 27.9903665,30.4943529 29.2423918,29.2423276 C30.4943529,27.9903665 30.4943529,25.96053 29.2423918,24.7085688 L20.1747459,15.6409229 Z" id="Shape"></path>
        </g>
    </g>
</svg>